<svg width="1015" height="1077" xmlns="http://www.w3.org/2000/svg" xmlns:xlink="http://www.w3.org/1999/xlink" xml:space="preserve" overflow="hidden"><g transform="translate(-884 -431)"><path d="M1422.38 431.346C1608.16 431.346 1771.96 525.476 1868.69 668.647L1879.1 685.798 1601.21 843.764 1599.87 843.208C1573.65 834.571 1536.36 832.937 1523.15 819.985 1546.4 829.842 1624.75 822.435 1645.92 809.504 1649.87 807.09 1653.99 804.294 1658.13 801.28 1705 766.624 1723.46 704.86 1702.76 649.921 1681.45 593.356 1624.16 558.742 1564.17 566.192 1504.18 573.63 1457.09 621.193 1450.25 681.255 1449.71 686.354 1449.35 691.322 1449.24 695.944 1448.62 720.744 1481.38 792.302 1501.54 807.511 1477.77 800.891 1450.03 747.133 1422.37 740.129 1394.71 747.133 1366.97 800.891 1343.21 807.511 1363.37 792.302 1396.13 720.744 1395.51 695.944 1395.4 691.322 1395.03 686.354 1394.5 681.255 1387.92 623.34 1343.66 576.476 1285.74 566.929 1226.09 557.109 1167.48 589.414 1143.93 645.089 1120.38 700.764 1138.02 765.324 1186.61 801.28 1190.76 804.294 1194.88 807.09 1198.83 809.503 1220 822.435 1298.35 829.842 1321.6 819.985 1303.98 837.261 1243.56 834.402 1223.66 854.858 1215.9 882.312 1248.58 933.21 1242.43 957.106 1239.34 932.047 1193.75 867.889 1171.97 856.027 1167.9 853.812 1163.42 851.646 1158.74 849.561 1105.3 826.296 1042.57 841.19 1005.35 886.587 967.019 933.334 965.683 1000.25 1002.13 1048.48 1038.57 1096.71 1103.3 1113.71 1158.74 1089.6 1163.42 1087.51 1167.9 1085.35 1171.97 1083.13 1193.75 1071.27 1239.34 1007.11 1242.43 982.054 1248.58 1005.95 1215.9 1056.85 1223.66 1084.3 1243.56 1104.76 1303.98 1101.91 1321.6 1119.18 1298.35 1109.32 1220 1116.72 1198.83 1129.66 1194.88 1132.08 1190.76 1134.87 1186.61 1137.88 1139.74 1172.54 1121.29 1234.3 1141.99 1289.23 1163.31 1345.8 1220.58 1380.42 1280.58 1372.97 1340.57 1365.53 1387.66 1317.97 1394.5 1257.91 1395.03 1252.81 1395.4 1247.84 1395.52 1243.22 1396.13 1218.42 1363.37 1146.86 1343.21 1131.65 1366.97 1138.28 1394.71 1192.03 1422.37 1199.03 1450.03 1192.03 1477.77 1138.28 1501.54 1131.65 1481.38 1146.86 1448.62 1218.42 1449.24 1243.22 1449.35 1247.84 1449.71 1252.81 1450.25 1257.91 1456.82 1315.82 1501.09 1362.69 1559.01 1372.23 1618.66 1382.05 1677.28 1349.75 1700.82 1294.08 1724.37 1238.4 1706.73 1173.84 1658.13 1137.88 1653.99 1134.87 1649.87 1132.08 1645.92 1129.66 1624.75 1116.73 1546.39 1109.32 1523.15 1119.18 1536.36 1106.22 1573.65 1104.59 1599.87 1095.95L1601.62 1095.22 1898.29 1220.63 1895.65 1226.13C1804.5 1393.91 1626.74 1507.81 1422.38 1507.81 1125.12 1507.81 884.144 1266.83 884.144 969.58 884.144 672.32 1125.12 431.346 1422.38 431.346Z" fill="#C00000" fill-rule="evenodd"/></g></svg>